# xmcd CD database file
#
# Track frame offsets:
#	183
#	10520
#	25288
#	38483
#	49185
#	58675
#	69930
#	79245
#	88505
#	98108
#	107468
#	119670
#	129778
#	139088
#	149080
#	162065
#	176580
#	202135
#
# Disc length: 2830 seconds
#
# Revision: 1
# Processed by: cddbd v1.4PL0 Copyright (c) Steve Scherf et al.
# Submitted via: CDex 1.50beta10
#
DISCID=ef0b0c12
DTITLE=Various Artist - Country Music Express
DYEAR=1998
DGENRE=Country
TTITLE0=Train Of Love - Johny Cash
TTITLE1=Lucille - Reg Lindsay
TTITLE2=Me And Bobby McGee - Charlie McCoy
TTITLE3=Rebel Rouser - Duane Eddy
TTITLE4=Snowbird - Lynn Anderson
TTITLE5=All For The Love Of A Girl - Jimmy Horton
TTITLE6=Frauline - Mickey Gelley
TTITLE7=There's No Back Door To Heaven - Gene Autry
TTITLE8=Congratulations - Faron Young
TTITLE9=Building Heartaches - Willie Nelson
TTITLE10=Take Me To The Country - Nev Nicholls
TTITLE11=Three Cigarettes In An Ashtray /Patsy Cline
TTITLE12=I Have Five Dollars And It's Saturday Night - George Jones
TTITLE13=Please Help Me I'm Falling - Hank Lockin
TTITLE14=Maple On The Hill - Mac Wiseman
TTITLE15=Don't Touch Me - Jennie Seely
TTITLE16=Pride And The Badge - Marty Robbins
TTITLE17=Walk Right In - Glen Campbell
EXTD=YEAR: 1998
EXTT0=
EXTT1=
EXTT2=
EXTT3=
EXTT4=
EXTT5=
EXTT6=
EXTT7=
EXTT8=
EXTT9=
EXTT10=
EXTT11=
EXTT12=
EXTT13=
EXTT14=
EXTT15=
EXTT16=
EXTT17=
PLAYORDER=
